<svg version="1.1" xmlns="http://www.w3.org/2000/svg" viewBox="0 0 32 32">
<path d="M18.13,0.36H11.4L6.44,25.38l0.87,0.35l0.38-0.23l0.47-3.08l3.34-1.45l0.7,0.52l-0.13,1.29l0.69,0.32l0.28-0.17
	l1.19-7.71l1.64,0.38l3.06,15.58l1.14,0.45l0.31-0.22l-0.36-1.98l1.22-3.81l1.65-1l0.74,0.53l0.58,2.13l1.07,0.39l0.29-0.2
	L18.13,0.36z M22.56,18.49l-0.28,0.67l-0.42-0.32L22.56,18.49z M15.37,1.06l-0.35,2.2l-0.46-2.21L15.37,1.06z M15.19,12.15
	l-0.38-0.12l0.13-0.91L15.19,12.15z M12.5,1.09L13,1.06l0.92,4.68l-2.44,0.26L12.5,1.09z M12.54,19.45L8.4,21.17l0.73-3.64
	l2.65-0.81l0.98,1.1L12.54,19.45z M12.84,17.21l-0.54-0.65l0.63-0.18L12.84,17.21z M13.1,15.32L9.33,16.5l0.48-2.52l3.3,0.9
	L13.1,15.32z M13.24,14.32l-3.32-0.84l0.13-0.91l3.63-0.84L13.24,14.32z M13.81,10.8l-3.55,0.79l0.97-4.65l2.87-0.42l0.2,1.22
	L13.81,10.8z M14.35,14.59l0.43-2.16l0.47,0.1l0.47,2.45L14.35,14.59z M16.64,0.95l1.06-0.01l1.47,5.13L15.74,6.4L16.64,0.95z
	 M15.75,7.48l3.7-0.56l1.15,4.69l-3.67,1.01L15.75,7.48z M20.65,12.6l-0.12,0.61l-0.78-0.24L20.65,12.6z M17.1,14.01l1.82-0.61
	l1.74,0.39l0.95,3.63l-3.57,1.57L17.1,14.01z M18.32,20.51L19.41,20l-0.75,2.38L18.32,20.51z M19.83,28.44l-0.31-1.66l1.08-0.67
	L19.83,28.44z M19.16,25.09l-0.36-1.86l1.21-3.57l1.48-0.65l0.75,0.68l0.83,3.2L19.16,25.09z M23.71,24.71l-0.53-0.32l0.57-0.34
	L23.71,24.71z"/>
</svg>
