<svg xmlns="http://www.w3.org/2000/svg" viewBox="0 0 1224 792" style="enable-background:new 0 0 1224 792" xml:space="preserve"><path d="M607.12 38.02h-16.66l-12.27 61.92 2.15.86.94-.58 1.16-7.62 8.26-3.59 1.74 1.3-.33 3.2 1.71.8.69-.41 2.95-19.09 4.06.94 7.57 38.57 2.83 1.13.78-.54-.89-4.89 3.03-9.43 4.07-2.48 1.82 1.32 1.44 5.28 2.64.97.72-.49-18.41-67.17zm10.99 44.87-.7 1.66-1.05-.79 1.75-.87zM600.3 39.75l-.86 5.45-1.13-5.46 1.99.01zm-.45 27.45-.94-.29.32-2.26.62 2.55zm-6.66-27.37 1.25-.09 2.28 11.58-6.03.65 2.5-12.14zm.11 45.44-10.25 4.25 1.82-9.02 6.55-2.01 2.43 2.72-.55 4.06zm.74-5.54-1.33-1.62 1.56-.45-.23 2.07zm.65-4.67-9.34 2.92 1.2-6.23 8.17 2.24-.03 1.07zm.34-2.5-8.21-2.08.33-2.25 8.98-2.08-1.1 6.41zm1.42-8.7-8.8 1.95 2.41-11.51 7.11-1.03.5 3.02-1.22 7.57zm1.33 9.37 1.07-5.36 1.16.26 1.16 6.07-3.39-.97zm5.66-33.75 2.63-.04 3.65 12.71-8.49.81 2.21-13.48zm-2.19 16.15 9.15-1.39 2.84 11.62-9.09 2.49-2.9-12.72zm12.11 12.69-.3 1.5-1.93-.6 2.23-.9zm-8.78 3.48 4.51-1.52 4.3.97 2.36 8.98-8.85 3.88-2.32-12.31zm3.03 16.1 2.7-1.26-1.85 5.9-.85-4.64zm3.73 19.63-.77-4.1 2.68-1.67-1.91 5.77zm-1.66-8.3-.88-4.59 2.99-8.85 3.67-1.6 1.85 1.69 2.06 7.92-9.69 5.43zm11.28-.95-1.31-.79 1.4-.83-.09 1.62zM503.78 64.39c-.13-1.14-.66-2.03-1.59-2.66-.93-.63-2.11-.95-3.53-.95-1.01 0-1.89.16-2.63.48s-1.31.75-1.72 1.3c-.41.55-.61 1.18-.61 1.88 0 .59.14 1.09.42 1.52.28.43.64.78 1.1 1.07.45.29.94.52 1.47.71.52.19 1.03.34 1.51.46l2.42.63c.79.19 1.6.46 2.43.79s1.6.76 2.31 1.3 1.28 1.21 1.72 2c.44.8.66 1.75.66 2.86 0 1.4-.36 2.64-1.08 3.73-.72 1.09-1.76 1.94-3.13 2.57-1.36.63-3.01.94-4.94.94-1.85 0-3.45-.29-4.81-.88-1.35-.59-2.41-1.42-3.18-2.51s-1.19-2.37-1.27-3.86h3.74c.07.89.36 1.64.88 2.23.51.59 1.17 1.03 1.97 1.32.8.29 1.68.43 2.64.43 1.05 0 1.99-.17 2.82-.5.83-.33 1.48-.8 1.95-1.4.47-.6.71-1.3.71-2.11 0-.73-.21-1.33-.62-1.8s-.97-.85-1.68-1.16c-.7-.31-1.5-.58-2.38-.81l-2.92-.8c-1.98-.54-3.55-1.33-4.7-2.38-1.16-1.05-1.73-2.43-1.73-4.15 0-1.42.39-2.67 1.16-3.73.77-1.06 1.82-1.89 3.14-2.48 1.32-.59 2.81-.89 4.47-.89 1.67 0 3.15.29 4.44.88 1.28.59 2.3 1.39 3.04 2.42.74 1.03 1.13 2.2 1.16 3.53h-3.64zM528.08 57.9h3.74v16.26c0 1.73-.41 3.26-1.22 4.59s-1.96 2.38-3.43 3.14-3.2 1.14-5.18 1.14c-1.97 0-3.69-.38-5.17-1.14-1.47-.76-2.62-1.81-3.43-3.14s-1.22-2.86-1.22-4.59V57.9h3.73v15.96c0 1.12.25 2.11.74 2.98.5.87 1.2 1.55 2.11 2.05s1.99.74 3.24.74c1.26 0 2.34-.25 3.25-.74s1.61-1.18 2.1-2.05c.49-.87.73-1.86.73-2.98V57.9zM537.25 82.62V57.9h9.06c1.75 0 3.21.29 4.36.86 1.15.58 2.01 1.35 2.58 2.33.57.98.86 2.08.86 3.3 0 1.03-.19 1.9-.57 2.6-.38.7-.88 1.27-1.52 1.69-.63.42-1.33.73-2.08.92v.24c.82.04 1.62.3 2.41.79.78.49 1.43 1.18 1.95 2.07.51.89.77 1.98.77 3.26 0 1.26-.3 2.4-.89 3.4-.59 1-1.5 1.79-2.73 2.38-1.23.58-2.81.88-4.72.88h-9.48zm3.73-14.03h5c.84 0 1.59-.16 2.26-.48.67-.32 1.21-.77 1.61-1.36s.6-1.27.6-2.07c0-1.02-.36-1.88-1.07-2.57-.72-.69-1.82-1.04-3.3-1.04h-5.1v7.52zm0 10.83h5.39c1.79 0 3.07-.35 3.84-1.04s1.16-1.56 1.16-2.6c0-.78-.2-1.5-.59-2.15s-.96-1.17-1.68-1.56c-.73-.39-1.59-.58-2.59-.58h-5.52v7.93zM559.49 82.62V57.9H575v3.21h-11.77v7.53h10.96v3.2h-10.96v7.57h11.92v3.21h-15.66z"/><g><path d="M625.34 82.35V57.63h9.05c1.75 0 3.21.29 4.36.86 1.15.58 2.01 1.35 2.58 2.33.57.98.86 2.08.86 3.3 0 1.03-.19 1.9-.57 2.6-.38.7-.88 1.27-1.52 1.69-.63.42-1.33.73-2.08.92v.24c.82.04 1.62.3 2.41.79.79.49 1.43 1.18 1.95 2.07.51.89.77 1.98.77 3.26 0 1.26-.3 2.4-.89 3.4-.59 1-1.5 1.79-2.74 2.38-1.23.58-2.8.88-4.72.88h-9.46zm3.74-14.03h5c.84 0 1.59-.16 2.26-.48.67-.32 1.21-.77 1.61-1.36s.6-1.27.6-2.07c0-1.02-.36-1.88-1.07-2.57-.72-.69-1.82-1.04-3.3-1.04h-5.09v7.52zm0 10.83h5.38c1.79 0 3.07-.35 3.84-1.04.77-.69 1.16-1.56 1.16-2.6 0-.78-.2-1.5-.59-2.15s-.96-1.17-1.68-1.56-1.59-.58-2.59-.58h-5.52v7.93zM649.67 82.35h-3.96l8.9-24.73h4.31l8.9 24.73h-3.96l-6.99-20.24h-.19l-7.01 20.24zm.67-9.68h12.85v3.14h-12.85v-3.14zM680.99 57.63h3.72v17.53c0 1.59-.31 2.94-.94 4.07s-1.5 1.99-2.63 2.58-2.45.89-3.96.89c-1.39 0-2.64-.25-3.75-.76-1.11-.51-1.98-1.25-2.62-2.22-.64-.97-.96-2.15-.96-3.54h3.71c0 .68.16 1.28.48 1.77.32.5.76.89 1.32 1.17.56.28 1.2.42 1.93.42.79 0 1.46-.17 2.01-.5.55-.33.97-.83 1.26-1.48.29-.65.43-1.45.43-2.39V57.63zM692.23 82.35h-3.96l8.9-24.73h4.31l8.9 24.73h-3.96l-6.99-20.24h-.19l-7.01 20.24zm.67-9.68h12.85v3.14H692.9v-3.14z"/></g></svg>
